<?xml version="1.0" encoding="UTF-8"?>
<!DOCTYPE svg PUBLIC "-//W3C//DTD SVG 1.1//EN" "http://www.w3.org/Graphics/SVG/1.1/DTD/svg11.dtd">
<svg xmlns="http://www.w3.org/2000/svg" version="1.1" width="34px" height="36px" style="shape-rendering:geometricPrecision; text-rendering:geometricPrecision; image-rendering:optimizeQuality; fill-rule:evenodd; clip-rule:evenodd" xmlns:xlink="http://www.w3.org/1999/xlink">
<g><path style="opacity:0.946" fill="#f8c900" d="M 22.5,-0.5 C 46.8333,-0.5 71.1667,-0.5 95.5,-0.5C 95.5086,1.30839 95.0086,2.97506 94,4.5C 76.8333,29 59.6667,53.5 42.5,78C 60.4969,78.4999 78.4969,78.6666 96.5,78.5C 96.5,83.8333 96.5,89.1667 96.5,94.5C 68.8333,94.5 41.1667,94.5 13.5,94.5C 13.3433,93.1266 13.51,91.7932 14,90.5C 31.0433,65.5796 48.21,40.7463 65.5,16C 51.1705,15.5001 36.8372,15.3334 22.5,15.5C 22.5,10.1667 22.5,4.83333 22.5,-0.5 Z"/></g>
<g><path style="opacity:0.953" fill="#f8c900" d="M -0.5,109.5 C 36.5,109.5 73.5,109.5 110.5,109.5C 110.5,113.833 110.5,118.167 110.5,122.5C 73.5,122.5 36.5,122.5 -0.5,122.5C -0.5,118.167 -0.5,113.833 -0.5,109.5 Z"/></g>
<g><path style="opacity:0.937" fill="#f8c900" d="M 7.5,137.5 C 12.8333,137.5 18.1667,137.5 23.5,137.5C 23.3334,157.503 23.5,177.503 24,197.5C 33.7133,186.122 43.0466,174.455 52,162.5C 54.5918,161.018 56.9251,161.352 59,163.5C 68,174.5 77,185.5 86,196.5C 86.5,176.836 86.6666,157.169 86.5,137.5C 91.8333,137.5 97.1667,137.5 102.5,137.5C 102.5,170.167 102.5,202.833 102.5,235.5C 99.0406,234.564 96.2072,232.564 94,229.5C 81.353,214.685 68.5196,200.019 55.5,185.5C 41.1763,201.326 27.0097,217.326 13,233.5C 11.5557,235.155 9.72241,235.822 7.5,235.5C 7.5,202.833 7.5,170.167 7.5,137.5 Z"/></g>
<g><path style="opacity:0.944" fill="#f8c900" d="M 104.5,304.5 C 98.5,304.5 92.5,304.5 86.5,304.5C 82.6083,296.719 79.275,288.719 76.5,280.5C 62.4841,280.167 48.4841,280.501 34.5,281.5C 30.5469,289.071 26.8802,296.738 23.5,304.5C 17.8333,304.5 12.1667,304.5 6.5,304.5C 17.716,280.4 29.216,256.4 41,232.5C 45.1709,223.487 49.8376,214.82 55,206.5C 72.2385,238.642 88.7385,271.309 104.5,304.5 Z M 54.5,235.5 C 59.5815,245.498 64.5815,255.665 69.5,266C 60.1489,266.832 50.8155,266.665 41.5,265.5C 46.2283,255.641 50.5616,245.641 54.5,235.5 Z"/></g>
</svg>
